<?xml version="1.0" encoding="UTF-8" standalone="no"?>
<svg
   xmlns:dc="http://purl.org/dc/elements/1.1/"
   xmlns:cc="http://creativecommons.org/ns#"
   xmlns:rdf="http://www.w3.org/1999/02/22-rdf-syntax-ns#"
   xmlns:svg="http://www.w3.org/2000/svg"
   xmlns="http://www.w3.org/2000/svg"
   xmlns:sodipodi="http://sodipodi.sourceforge.net/DTD/sodipodi-0.dtd"
   xmlns:inkscape="http://www.inkscape.org/namespaces/inkscape"
   width="1514.7916mm"
   height="1514.7916mm"
   viewBox="0 0 1514.7916 1514.7916"
   version="1.1"
   id="svg8"
   inkscape:version="1.0rc1 (09960d6f05, 2020-04-09)"
   sodipodi:docname="get fit..svg">
  <defs
     id="defs2" />
  <sodipodi:namedview
     id="base"
     pagecolor="#ffffff"
     bordercolor="#666666"
     borderopacity="1.0"
     inkscape:pageopacity="0.0"
     inkscape:pageshadow="2"
     inkscape:zoom="0.08"
     inkscape:cx="544.99355"
     inkscape:cy="2940.0631"
     inkscape:document-units="mm"
     inkscape:current-layer="layer1"
     inkscape:document-rotation="0"
     showgrid="false"
     inkscape:window-width="1920"
     inkscape:window-height="1017"
     inkscape:window-x="-8"
     inkscape:window-y="-8"
     inkscape:window-maximized="1"
     showguides="false"
     inkscape:guide-bbox="true"
     inkscape:snap-global="false"
     fit-margin-top="0"
     fit-margin-left="0"
     fit-margin-right="0"
     fit-margin-bottom="0">
    <sodipodi:guide
       id="guide1227"
       orientation="1,0"
       position="3048.5368,-2018.8845" />
    <sodipodi:guide
       id="guide1229"
       orientation="1,0"
       position="3104.7607,-2018.5065" />
  </sodipodi:namedview>
  <metadata
     id="metadata5">
    <rdf:RDF>
      <cc:Work
         rdf:about="">
        <dc:format>image/svg+xml</dc:format>
        <dc:type
           rdf:resource="http://purl.org/dc/dcmitype/StillImage" />
        <dc:title></dc:title>
      </cc:Work>
    </rdf:RDF>
  </metadata>
  <g
     inkscape:label="Layer 1"
     inkscape:groupmode="layer"
     id="layer1"
     transform="translate(2256.5823,3657.6523)">
    <rect
       style="fill:#ff7f2a;fill-rule:evenodd;stroke-width:5.20861;stroke-linecap:square;paint-order:markers stroke fill;fill-opacity:1"
       id="rect1077"
       width="1514.7916"
       height="1514.7916"
       x="-2256.5823"
       y="-3657.6523"
       inkscape:export-xdpi="96.099998"
       inkscape:export-ydpi="96.099998" />
    <g
       inkscape:export-ydpi="96.099998"
       inkscape:export-xdpi="96.099998"
       style="fill:#ffffff;fill-opacity:1;stroke:#ffffff"
       id="g1467"
       transform="matrix(5.1065763,0,0,5.1065763,21146.464,7353.5996)">
      <path
         sodipodi:nodetypes="cssccsssssssscsscsssscsscccssssscccssscccsscccssccccscccsscscccccsscccsssscscscscsscssscsscsssscssccccccscsssssccccsscsscsscsccccccsscccsscccssccsssccsscsscsscccccsscccsscsssscsscssccscc"
         inkscape:connector-curvature="0"
         id="path1437"
         d="m -4526.8399,-1969.6299 c -8.7869,-0.725 -15.528,-2.8422 -20.0619,-6.301 -4.1927,-3.1984 -7.3223,-8.6535 -8.7251,-15.2085 -0.4211,-1.9676 -0.4797,-2.7944 -0.4731,-6.6714 0.01,-3.7856 0.074,-4.7287 0.4644,-6.5226 1.3645,-6.2628 4.1269,-11.3901 8.4664,-15.7145 5.3605,-5.3417 11.3763,-8.2231 19.9813,-9.5704 2.9488,-0.4617 11.4311,-0.634 15.6041,-0.3171 4.1502,0.3153 13.5158,1.626 13.7359,1.9224 0.071,0.095 0.515,11.7366 0.4504,11.8013 -0.037,0.037 -1.3166,-0.2928 -2.8443,-0.732 -5.6548,-1.6254 -13.0841,-2.5101 -17.5326,-2.0878 -10.3246,0.9802 -17.0841,5.6729 -20.0255,13.9024 -0.9587,2.6824 -1.3385,5.0319 -1.3328,8.2446 0.01,3.512 0.4925,5.8777 1.7272,8.4031 1.5532,3.177 3.9182,5.329 7.3794,6.7149 2.9043,1.163 4.0048,1.34 8.2928,1.3341 3.4701,-0.01 4.2116,-0.069 6.5797,-0.5717 1.4679,-0.3115 2.697,-0.5943 2.7314,-0.6287 0.088,-0.088 0.6962,-11.4881 0.6171,-11.5672 -0.036,-0.036 -1.8559,-0.092 -4.0447,-0.1251 l -3.9799,-0.06 0.1337,-3.1904 c 0.074,-1.7547 0.1896,-4.0704 0.2576,-5.1458 l 0.1239,-1.9555 11.9593,0.01 11.9593,0.01 -0.051,0.9173 c -0.028,0.5045 -0.095,1.334 -0.1499,1.8435 -0.2752,2.5653 -0.965,14.9367 -1.4539,26.0735 -0.13,2.9584 -0.1602,3.1287 -0.5747,3.2289 -0.2406,0.058 -1.9658,0.3417 -3.8338,0.6299 -8.3658,1.2912 -19.0859,1.8555 -25.3812,1.3361 z m 151.7286,-0.9082 c -0.042,-0.042 -0.015,-1.0033 0.061,-2.1356 0.076,-1.1324 0.3391,-5.7 0.5845,-10.1503 0.2454,-4.4502 0.4903,-8.3924 0.5442,-8.7603 l 0.098,-0.669 h 1.6374 1.6374 v -2.5119 c 0,-2.4868 0.3327,-10.6651 0.4944,-12.1538 l 0.084,-0.7719 h -1.659 -1.659 l 0.1348,-2.8112 c 0.074,-1.5462 0.1349,-3.3792 0.1349,-4.0731 v -1.2618 l 3.9108,0.084 3.9109,0.084 0.01,-1.1054 c 0.01,-1.013 0.1596,-3.9296 0.5271,-10.0077 l 0.14,-2.3156 h 3.8977 3.8976 l -0.1176,1.0806 c -0.1296,1.1893 -0.6049,8.7632 -0.9333,14.8715 -0.5148,9.5758 -1.0314,25.7434 -1.0357,32.4188 0,2.434 -0.063,5.7353 -0.136,7.3361 l -0.1331,2.9108 -7.9754,0.01 c -4.3865,0.01 -8.0099,-0.025 -8.0522,-0.068 z m -119.7598,-2.1095 c 0,-3.9797 0.9527,-21.6607 1.5523,-28.8602 0.1646,-1.9768 0.2993,-3.8174 0.2993,-4.0901 v -0.496 l -2.982,0.149 -2.982,0.1491 0.11,-3.2632 c 0.1217,-3.6154 0.2507,-5.0126 0.4628,-5.0126 0.078,0 0.865,0.2411 1.75,0.5357 0.8849,0.2948 1.6567,0.4882 1.715,0.4299 0.058,-0.058 0.01,-1.4342 -0.1208,-3.0573 -0.1247,-1.6232 -0.2849,-5.1743 -0.356,-7.8913 l -0.1293,-4.94 h 22.2612 c 19.6496,0 22.2614,0.036 22.2631,0.3087 0.01,0.6763 -0.4384,8.6076 -0.5341,9.5713 l -0.1021,1.0292 -12.6935,-0.073 c -6.9814,-0.041 -13.7231,-0.01 -14.9816,0.069 l -2.288,0.143 -0.3048,6.0025 c -0.1676,3.3015 -0.2464,6.0743 -0.1751,6.1619 0.1664,0.2044 20.1653,0.2341 23.1331,0.034 l 2.2446,-0.1511 -0.1246,1.1109 c -0.068,0.611 -0.2374,3.1589 -0.3754,5.662 l -0.2507,4.5513 -12.6336,0.1 c -7.1133,0.056 -12.7097,0.1812 -12.8078,0.2859 -0.2158,0.2307 -0.8435,12.6837 -0.6498,12.8947 0.1583,0.1726 34.8069,-0.2091 38.5872,-0.425 l 2.4437,-0.1395 -0.1155,1.235 c -0.064,0.6793 -0.2311,3.2033 -0.3725,5.609 l -0.2572,4.3739 h -25.7934 -25.7934 v -2.0068 z m 53.8588,0.9262 c 0.533,-8.4542 0.7159,-11.0879 0.8165,-11.7561 l 0.1197,-0.7954 -1.8745,0.1483 c -1.2512,0.099 -1.8747,0.078 -1.8747,-0.065 0,-0.1173 0.1362,-2.4196 0.3027,-5.1163 0.3696,-5.9863 0.6801,-12.9637 0.8274,-18.5909 0.061,-2.3208 0.1628,-5.5967 0.227,-7.2799 l 0.1167,-3.0603 -3.5157,0.1507 -3.5155,0.1508 0.01,-0.5896 c 0.014,-1.196 0.5815,-10.2001 0.6464,-10.2557 0.037,-0.032 9.5986,-0.1236 21.2481,-0.2041 l 21.181,-0.1464 -0.1293,1.9208 c -0.071,1.0564 -0.1924,3.6209 -0.2695,5.6989 l -0.1403,3.7782 -0.7397,-0.1269 c -0.4069,-0.07 -4.5989,-0.1869 -9.3157,-0.2604 l -8.576,-0.1337 -0.1175,0.9077 c -0.7434,5.7448 -1.9732,32.1014 -1.9751,42.3318 v 4.374 h -6.758 -6.7579 z m 26.7361,0.4117 c 0.1311,-0.9856 0.6752,-6.8677 0.9092,-9.8286 0.426,-5.3912 1.0718,-19.4313 1.3668,-29.7184 l 0.141,-4.9153 3.6226,0.078 3.6226,0.078 0.126,-4.9422 c 0.069,-2.7182 0.1915,-5.7285 0.2716,-6.6895 l 0.1458,-1.7475 h 18.6557 18.6556 l -0.054,1.1321 c -0.03,0.6226 -0.14,2.4288 -0.2449,4.0137 -0.105,1.5849 -0.1922,3.5339 -0.1939,4.331 v 1.4494 h -13.784 c -7.5812,0 -13.8258,0.044 -13.8769,0.095 -0.1587,0.1586 -0.5975,12.3488 -0.4498,12.4963 0.077,0.077 5.285,0.1422 11.5741,0.1456 l 11.435,0.01 -0.1269,2.7787 c -0.07,1.5284 -0.1825,3.9552 -0.2503,5.3929 l -0.1235,2.6141 -7.0274,-0.1037 c -3.865,-0.057 -9.1115,-0.03 -11.6586,0.061 l -4.6313,0.1655 -0.2358,7.8216 c -0.1297,4.302 -0.2455,9.6511 -0.2573,11.887 l -0.022,4.0652 h -8.8379 -8.8379 z m 62.4586,0.2901 c 0,-0.2084 0.1812,-2.3619 0.4026,-4.7856 0.9946,-10.8851 2.0656,-31.8732 2.0671,-40.5069 v -1.9316 l -2.9846,0.1478 -2.9846,0.1479 v -0.995 c 0,-0.5472 0.1398,-2.8474 0.3071,-5.1116 0.1673,-2.2642 0.3049,-4.2648 0.3058,-4.4458 0,-0.2985 1.9214,-0.3433 20.5778,-0.4798 11.3169,-0.083 20.6499,-0.105 20.7399,-0.049 0.09,0.056 0.1027,1.2441 0.028,2.6409 -0.075,1.3969 -0.2014,3.9166 -0.2819,5.5992 l -0.1464,3.0593 -0.7493,-0.1298 c -0.4122,-0.072 -4.6165,-0.1892 -9.3429,-0.262 l -8.5936,-0.1323 v 0.4322 c 0,0.2377 -0.1363,2.0819 -0.303,4.0981 -0.7921,9.5857 -1.7491,31.606 -1.7539,40.3559 v 2.7272 h -8.645 c -8.2583,0 -8.645,-0.017 -8.645,-0.3788 z"
         style="fill:#ffffff;fill-opacity:1;stroke:#ffffff;stroke-width:0.205833;stroke-opacity:1" />
      <g
         style="fill:#ffffff;fill-opacity:1;stroke:#ffffff"
         id="g1461">
        <path
           inkscape:connector-curvature="0"
           id="path1439"
           d="m -4498.263,-1950.2929 c -3.9163,-0.9834 -5.9487,-5.5009 -4.2506,-9.4482 0.5322,-1.237 2.0903,-2.7562 3.4406,-3.3545 1.2453,-0.5517 3.4299,-0.5876 4.9272,-0.081 4.4418,1.5029 5.776,7.7004 2.3934,11.1176 -1.5452,1.5609 -4.3248,2.3149 -6.5106,1.7661 z m 3.668,-3.0924 c 2.3128,-1.4044 2.1061,-5.8369 -0.3309,-7.0971 -0.7722,-0.3993 -2.3249,-0.3828 -3.2035,0.034 -1.3821,0.6558 -2.2451,3.0791 -1.75,4.9142 0.6305,2.3374 3.2318,3.3951 5.2844,2.1487 z m 94.4699,3.0304 c -1.9326,-0.6426 -3.2562,-1.796 -4.055,-3.5334 -0.3881,-0.8443 -0.4731,-1.3804 -0.4733,-2.9846 -1e-4,-2.2741 0.4298,-3.4145 1.8061,-4.7908 2.4498,-2.4498 6.5587,-2.5362 9.2263,-0.1941 0.3972,0.3487 0.995,1.1267 1.3286,1.7288 0.5633,1.017 0.6064,1.2484 0.6064,3.2561 0,1.9452 -0.055,2.2654 -0.55,3.2035 -0.6584,1.2475 -1.9418,2.4561 -3.1982,3.0119 -1.1673,0.5163 -3.5801,0.672 -4.6909,0.3026 z m 2.8816,-2.6275 c 1.6886,-0.4591 2.5751,-1.8168 2.5696,-3.9353 -0.01,-2.2584 -1.1513,-3.6543 -3.1332,-3.8186 -2.2246,-0.1846 -3.6528,1.1144 -3.8238,3.4774 -0.1527,2.1116 0.6865,3.6054 2.3611,4.2025 0.9764,0.3481 1.0133,0.3495 2.0263,0.074 z m 30.3369,2.6181 c -1.1916,-0.4259 -1.9102,-1.0497 -2.5598,-2.2224 l -0.6071,-1.0958 -0.064,-4.8886 -0.065,-4.8885 h 1.5573 1.5572 v 4.4357 c 0,5.0183 0.098,5.4467 1.335,5.855 0.9789,0.3231 1.8411,0.097 2.4673,-0.6475 l 0.5202,-0.6181 v -4.5125 -4.5126 h 1.5603 1.5603 l -0.068,4.7856 c -0.063,4.4117 -0.1037,4.8622 -0.5204,5.7651 -0.2486,0.5387 -0.7579,1.2595 -1.1318,1.6018 -1.2073,1.1051 -3.8349,1.5523 -5.5405,0.9428 z m -170.0759,-0.2731 c -0.1905,-0.6147 -3.0067,-12.4627 -3.0067,-12.6489 0,-0.095 0.584,-0.1733 1.2976,-0.1733 h 1.2976 l 0.8917,3.8594 c 0.4904,2.1226 0.9586,4.043 1.0403,4.2675 0.1006,0.2764 0.4751,-0.9516 1.1609,-3.808 l 1.0124,-4.2159 0.9614,-0.062 c 1.1117,-0.072 0.9068,-0.4976 2.0123,4.179 0.3479,1.4717 0.7354,3.0464 0.8611,3.4991 l 0.2286,0.8234 0.3617,-1.4408 c 0.199,-0.7925 0.6628,-2.7145 1.0307,-4.2711 l 0.6689,-2.8302 h 1.3061 c 0.7185,0 1.3063,0.047 1.3063,0.1064 0,0.058 -0.6947,2.9868 -1.5438,6.5075 -0.849,3.5206 -1.5437,6.4368 -1.5437,6.4803 0,0.043 -0.6369,0.079 -1.4152,0.079 h -1.4153 l -0.7638,-3.2418 c -0.4201,-1.783 -0.8319,-3.5198 -0.9152,-3.8594 -0.1241,-0.5071 -0.3146,0.063 -1.0654,3.1904 l -0.9144,3.8079 -1.3699,0.061 c -1.1692,0.051 -1.3867,0.01 -1.4842,-0.3088 z m 68.6235,-6.2355 v -6.5867 h 2.5214 c 2.9954,0 3.8299,0.1989 4.8914,1.1579 1.7565,1.5869 1.4235,4.978 -0.6103,6.2148 l -0.6113,0.3717 1.7415,2.6074 c 0.9578,1.434 1.7414,2.6553 1.7414,2.7138 0,0.058 -0.7281,0.1065 -1.6182,0.1065 h -1.6182 l -1.6237,-2.466 c -0.893,-1.3564 -1.6931,-2.4678 -1.778,-2.47 -0.085,0 -0.1543,1.1076 -0.1543,2.466 v 2.47 h -1.4409 -1.4408 z m 4.6305,-1.1185 c 1.7484,-0.7306 0.9004,-2.9982 -1.1211,-2.9982 h -0.6277 v 1.6467 c 0,1.6248 0.01,1.6467 0.5211,1.6467 0.2867,0 0.8391,-0.1328 1.2277,-0.2952 z m 26.6562,1.1185 v -6.5867 h 1.4409 1.4407 v 2.7041 2.7041 l 1.7667,-2.241 c 0.9716,-1.2325 1.9227,-2.4532 2.1136,-2.7128 0.3223,-0.4383 0.4739,-0.4675 2.1315,-0.4117 l 1.7846,0.06 -2.4433,3.0782 c -1.3439,1.6931 -2.3857,3.1751 -2.3152,3.2934 0.071,0.1182 1.2242,1.6739 2.5637,3.4569 l 2.4356,3.2419 -1.8058,-0.01 -1.8059,-0.01 -2.1612,-2.9138 -2.1613,-2.9139 -0.057,2.9217 -0.057,2.9216 h -1.4352 -1.4352 z m 101.6818,1.4408 v -5.1458 h -1.4407 -1.4409 v -1.4408 -1.4409 h 4.4254 4.4255 v 1.4409 1.4408 h -1.5438 -1.5438 v 5.1458 5.1459 h -1.4408 -1.4409 z"
           style="fill:#000000;fill-opacity:1;stroke:#000000;stroke-width:0.205833"
           sodipodi:nodetypes="sssssssssssssssssssssscssssssscccccssscccccsssssssscssscssscsscssssscssscsssccssscssscscsccccsscsssccccccssscsssccccccccccccccccccccccccccc" />
        <path
           sodipodi:nodetypes="sscsscssssssscsssssssssssssssssssssssscsssssssscssscsssssssssssssssssssssssssscsssssssscssss"
           style="fill:#000000;fill-opacity:1;stroke:#000000;stroke-width:0.205833"
           d="m -4352.0766,-2031.1545 c -1.9424,-2.9701 -3.1233,-5.6869 -3.9274,-8.4131 l -0.7111,-2.4104 -1.4571,-0.371 c -1.1253,-0.2864 -1.9448,-0.35 -3.5979,-0.2787 l -2.1407,0.092 0.1151,-0.5337 c 0.063,-0.2936 0.077,-0.5346 0.032,-0.5357 -0.046,0 -0.8313,0.4062 -1.7449,0.9051 -0.9135,0.4987 -2.5237,1.1928 -3.5782,1.5421 -2.8142,0.9323 -5.0523,1.0969 -11.0606,0.8137 -7.4965,-0.3534 -13.3661,-1.2055 -20.649,-2.9975 -6.9795,-1.7175 -10.1202,-2.8097 -11.2792,-3.9224 l -0.453,-0.435 -0.4922,0.4411 c -0.8426,0.7554 -1.6972,0.8748 -5.0938,0.7114 -7.7402,-0.3724 -10.8783,-0.3483 -13.3852,0.1016 -3.1501,0.5657 -6.7251,1.5637 -8.6044,2.4023 -3.1588,1.4095 -4.4914,2.9347 -4.5443,5.2006 -0.015,0.6433 -0.1134,1.1678 -0.2185,1.1653 -0.6587,-0.015 -1.6198,-2.0428 -1.6153,-3.4074 0,-0.7785 0.2373,-1.2859 1.6359,-3.5382 1.7678,-2.8469 2.5228,-4.6436 3.1005,-7.3791 0.2041,-0.9659 0.4718,-1.9352 0.5951,-2.1541 0.558,-0.991 1.8766,-1.5121 2.6892,-1.063 0.2581,0.1426 0.8821,0.6598 1.3865,1.1493 1.2601,1.2227 2.0953,1.4951 4.6883,1.5288 1.8825,0.025 2.6951,-0.095 6.3013,-0.9275 7.8437,-1.8109 10.0679,-1.8963 15.4182,-0.5915 5.1529,1.2566 6.2234,1.326 12.1665,0.7891 4.0741,-0.368 8.0317,0.2257 10.5654,1.5849 0.5389,0.2892 1.5013,1.0039 2.1385,1.5884 1.6347,1.4994 1.7903,1.4404 1.1296,-0.4284 -0.5105,-1.4436 -0.4769,-1.9391 0.1583,-2.3344 0.4327,-0.2692 0.825,-0.2934 2.268,-0.1391 1.9873,0.2125 2.2076,0.036 0.9064,-0.7296 -0.4666,-0.2742 -0.8838,-0.6168 -0.9271,-0.7611 -0.1161,-0.3872 1.0767,-1.364 2.429,-1.9894 1.09,-0.504 1.375,-0.5433 3.5515,-0.4906 1.6281,0.038 2.781,0.1815 3.6954,0.4554 1.6955,0.5082 5.0027,2.1916 6.7653,3.4437 0.752,0.5343 1.3674,0.9527 1.368,0.9302 5e-4,-0.023 -0.1757,-0.4088 -0.3917,-0.8579 -0.8046,-1.6739 -0.368,-1.8433 2.0526,-0.7969 0.9977,0.4313 2.1188,0.7913 2.4914,0.8 0.4573,0.011 1.36,-0.3653 2.7779,-1.1572 3.2925,-1.8388 3.8046,-1.9754 7.6331,-2.0366 l 3.3039,-0.053 1.8924,-0.8706 c 1.7667,-0.8129 1.9745,-0.8613 3.127,-0.7294 0.6791,0.078 1.4173,0.2082 1.6404,0.2897 0.2891,0.1057 0.2367,0 -0.183,-0.3708 -0.4194,-0.3699 -0.5452,-0.6248 -0.4376,-0.8869 0.1361,-0.3312 0.3508,-0.3517 2.1499,-0.2046 2.68,0.219 4.4587,0.8423 5.8883,2.0632 0.9069,0.7746 1.2281,0.9379 1.6554,0.8411 0.7352,-0.1663 1.6073,-1.1154 2.2848,-2.4863 1.6681,-3.3751 1.9778,-3.8512 3.4039,-5.232 1.7043,-1.65 2.9787,-2.188 4.6971,-1.9821 2.8682,0.3433 6.165,3.3645 7.04,6.4515 0.7369,2.5999 0.1717,4.9032 -1.4997,6.1115 -1.4721,1.0643 -1.9086,1.5776 -2.3848,2.8038 -0.6875,1.7706 -0.7446,1.8331 -1.656,1.8118 -0.6968,-0.016 -0.9963,0.1421 -2.154,1.1402 -0.7396,0.6377 -1.5677,1.2097 -1.8402,1.2714 -0.7341,0.1661 -1.5156,-0.3441 -2.508,-1.6371 -1.0621,-1.384 -1.982,-1.7623 -3.0768,-1.2654 -1.0947,0.4969 -3.374,2.3572 -4.5386,3.7041 -1.33,1.5383 -2.3872,2.1445 -4.6378,2.6595 -1.5528,0.3551 -2.1508,0.3779 -5.6446,0.2148 -2.1491,-0.1002 -4.3255,-0.1411 -4.8362,-0.09 -0.8986,0.089 -0.9412,0.1252 -1.3147,1.1125 -0.5975,1.58 -0.5121,5.0083 0.1823,7.3134 0.292,0.9693 0.7062,2.1603 0.9205,2.6466 0.3389,0.7693 0.4749,0.8861 1.0474,0.8995 1.0225,0.024 5.0625,0.91 5.3703,1.178 0.1516,0.1318 0.2736,0.321 0.2713,0.4203 0,0.099 -2.0345,0.1195 -4.5276,0.1251 l -4.3565,0.027 z m -2.1683,-8.4312 c -0.8578,-3.3598 -1.1105,-6.9574 -0.6059,-8.6229 0.132,-0.4356 0.4709,-0.9961 0.7535,-1.2459 0.6095,-0.5391 3.318,-1.3865 9.5189,-2.9787 2.5065,-0.6436 4.6979,-1.2531 4.8701,-1.3547 0.5059,-0.2984 -3.3682,-0.069 -5.621,0.3329 -4.6319,0.8262 -8.1393,2.0794 -10.6253,3.7963 l -1.0049,0.694 0.1036,1.6257 c 0.1464,2.2965 0.8826,5.14 1.9185,7.4092 0.4884,1.0699 0.9265,1.9084 0.9737,1.8635 0.047,-0.045 -0.079,-0.7288 -0.2812,-1.5194 z"
           id="path1441"
           inkscape:connector-curvature="0" />
      </g>
    </g>
  </g>
</svg>
