<?xml version="1.0" standalone="no"?>
<!DOCTYPE svg PUBLIC "-//W3C//DTD SVG 20010904//EN"
 "http://www.w3.org/TR/2001/REC-SVG-20010904/DTD/svg10.dtd">
<svg version="1.0" xmlns="http://www.w3.org/2000/svg"
 width="187.000000pt" height="257.000000pt" viewBox="0 0 187.000000 257.000000"
 preserveAspectRatio="xMidYMid meet">

<g transform="translate(0.000000,257.000000) scale(0.100000,-0.100000)"
fill="#000000" stroke="none">
<path d="M106 2494 c-14 -14 -16 -135 -16 -1184 0 -1146 0 -1170 19 -1180 23
-12 1059 -14 1077 -2 7 4 14 23 15 42 l4 35 -49 6 c-37 4 -55 12 -72 33 -38
44 -30 128 15 163 11 8 61 12 154 13 l137 0 38 38 c67 66 126 107 141 97 7 -4
3 -17 -10 -35 -12 -15 -18 -33 -15 -39 4 -6 1 -11 -8 -11 -8 0 -18 -5 -22 -12
-5 -7 -3 -8 7 -3 12 8 12 6 0 -8 -16 -20 -10 -23 62 -30 26 -3 57 -13 67 -22
25 -23 35 -78 22 -121 l-10 -34 59 0 59 0 0 308 -1 307 -44 21 c-24 11 -42 17
-39 12 3 -4 2 -17 -1 -28 -6 -19 -12 -20 -71 -14 -53 4 -70 2 -92 -13 -36 -24
-112 -53 -139 -53 -17 0 -23 6 -23 24 0 25 35 76 52 76 5 0 24 6 41 14 18 8
50 20 72 26 61 19 89 50 45 50 -11 0 -20 4 -20 10 0 5 -6 7 -13 4 -8 -3 -19 2
-26 9 -15 19 10 46 45 48 54 3 65 12 33 30 -23 12 -23 12 12 28 27 13 36 25
46 61 17 70 82 223 104 246 18 19 19 37 19 256 l0 235 -41 12 c-47 14 -59 9
-36 -17 10 -10 17 -24 17 -30 0 -7 4 -12 9 -12 10 0 25 -50 17 -58 -3 -2 -12
1 -20 7 -8 7 -20 11 -28 10 -7 -2 -23 1 -36 5 -30 10 -51 -8 -50 -44 1 -16 -4
-36 -10 -43 -7 -8 -9 -16 -6 -20 11 -10 -7 -87 -20 -87 -7 0 -13 -13 -14 -28
-1 -39 -5 -55 -19 -69 -6 -7 -13 -16 -15 -21 -1 -5 -23 -23 -47 -40 -24 -18
-38 -32 -30 -33 8 0 -1 -7 -19 -15 -18 -8 -55 -30 -82 -49 -28 -19 -50 -32
-50 -29 0 4 -7 1 -15 -6 -8 -7 -15 -9 -15 -5 0 4 -6 2 -14 -4 -11 -9 -15 -9
-19 1 -3 7 -6 2 -6 -11 -1 -20 -3 -22 -16 -11 -13 11 -20 11 -39 0 -13 -7 -28
-10 -33 -7 -5 3 -20 -3 -33 -14 -15 -12 -18 -17 -7 -13 9 3 17 2 17 -4 0 -11
-25 -10 -35 0 -4 3 -8 14 -10 25 -2 10 -4 18 -5 18 -1 0 -3 9 -5 20 -2 11 -9
21 -15 23 -5 2 -8 8 -5 12 3 5 -22 12 -55 16 -68 8 -78 20 -22 29 59 10 59 11
59 59 0 35 -4 46 -16 46 -13 1 -12 3 4 16 17 13 18 16 5 24 -11 7 -12 12 -3
18 9 5 9 20 1 57 -7 34 -7 54 0 66 6 9 8 20 4 24 -10 10 -9 29 3 37 6 5 5 8
-3 8 -9 0 -8 9 4 38 20 44 24 83 12 99 -6 7 -2 16 11 25 12 8 18 18 15 21 -9
8 24 79 44 95 9 7 11 12 4 12 -6 0 -9 7 -5 17 5 12 3 14 -7 8 -9 -6 -11 -4 -5
4 4 8 18 10 34 7 23 -6 24 -5 9 7 -15 12 -14 16 6 59 17 35 19 45 7 40 -11 -4
-13 0 -9 16 l6 22 -228 0 c-270 0 -260 -4 -260 100 0 102 -5 100 224 100 l193
0 -1 33 c0 17 -5 35 -11 39 -5 4 -220 8 -477 8 -411 0 -468 -2 -482 -16z m930
-639 c-3 -20 -16 -31 -16 -13 0 13 8 28 16 28 1 0 1 -7 0 -15z m-666 -198 l0
-43 37 4 c48 6 63 -15 63 -90 0 -45 -3 -58 -15 -58 -11 0 -15 12 -15 49 0 59
-20 87 -51 71 -15 -9 -19 -22 -19 -65 0 -42 -3 -55 -15 -55 -12 0 -15 19 -15
115 0 96 3 115 15 115 11 0 15 -11 15 -43z m-70 8 c0 -11 -11 -15 -43 -15 -65
0 -101 -52 -77 -111 14 -32 43 -44 91 -37 23 4 29 1 27 -11 -2 -11 -17 -17
-49 -19 -58 -4 -97 25 -105 79 -7 44 17 102 49 117 35 17 107 15 107 -3z m530
-25 c0 -13 7 -20 20 -20 11 0 20 -4 20 -10 0 -5 -9 -10 -21 -10 -18 0 -20 -5
-17 -52 2 -44 6 -52 21 -50 10 2 17 -3 17 -13 0 -12 -8 -15 -32 -13 -33 3 -33
3 -36 66 -2 46 -7 62 -17 62 -8 0 -15 5 -15 10 0 6 7 10 15 10 8 0 15 9 15 20
0 11 7 20 15 20 8 0 15 -9 15 -20z m-210 -39 c5 -11 10 -29 10 -40 0 -18 -6
-21 -50 -21 -37 0 -50 -4 -50 -15 0 -23 35 -37 65 -25 23 9 26 8 23 -7 -4 -25
-79 -30 -102 -8 -21 22 -21 93 1 117 23 25 89 25 103 -1z m130 3 c0 -9 -8 -14
-17 -13 -54 5 -58 -14 -8 -35 26 -11 35 -21 35 -39 0 -14 -6 -30 -14 -36 -19
-16 -88 -10 -94 8 -3 10 2 12 24 8 59 -11 73 15 19 37 -37 16 -48 49 -23 74
18 18 78 15 78 -4z m400 -344 c0 -5 -2 -10 -4 -10 -3 0 -8 5 -11 10 -3 6 -1
10 4 10 6 0 11 -4 11 -10z m165 -372 c14 -6 25 -14 25 -18 0 -16 -81 -80 -101
-80 -11 0 -17 -5 -14 -10 4 -6 12 -7 18 -3 7 3 4 -3 -6 -14 -16 -18 -22 -19
-50 -9 -44 15 -60 32 -52 56 8 26 1 25 -40 -6 -19 -14 -40 -27 -47 -28 -7 -1
-18 -5 -25 -9 -7 -5 -9 0 -6 14 3 11 13 23 22 26 9 3 32 21 51 39 19 18 51 37
70 42 49 14 124 14 155 0z m168 -177 c14 -14 -10 -40 -60 -66 -90 -47 -132
-77 -135 -97 -4 -30 -63 -61 -89 -48 -11 6 -17 15 -14 19 2 5 -2 14 -10 21
-15 12 -10 22 23 53 7 7 27 27 45 46 18 19 50 47 72 63 36 27 45 30 99 25 32
-3 63 -10 69 -16z m136 -5 c9 -11 8 -15 -5 -20 -27 -10 -54 -7 -54 8 0 25 41
34 59 12z m-629 -146 c0 -5 -5 -10 -11 -10 -5 0 -7 5 -4 10 3 6 8 10 11 10 2
0 4 -4 4 -10z"/>
<path d="M547 1589 c-28 -16 -20 -29 18 -29 38 0 46 13 17 29 -11 6 -24 6 -35
0z"/>
<path d="M1317 2496 c-3 -8 3 -22 14 -32 17 -15 19 -15 19 -1 0 39 -22 61 -33
33z"/>
<path d="M1544 2388 c-10 -15 7 -48 25 -48 20 0 41 19 41 36 0 14 -58 25 -66
12z"/>
<path d="M758 2363 c-2 -5 -1 -26 3 -48 l6 -40 2 48 c1 44 -3 57 -11 40z"/>
<path d="M823 2363 c23 -6 22 -26 -3 -48 -27 -25 -25 -35 8 -34 24 2 25 2 4 6
l-24 5 22 23 c25 27 21 56 -7 54 -17 -1 -17 -2 0 -6z"/>
<path d="M904 2326 c-10 -25 3 -46 28 -45 l23 2 -22 4 c-29 6 -30 23 -2 23 12
0 19 5 17 13 -7 18 -37 21 -44 3z m33 -2 c-3 -3 -12 -4 -19 -1 -8 3 -5 6 6 6
11 1 17 -2 13 -5z"/>
<path d="M969 2328 c11 -15 11 -21 0 -35 -11 -15 -11 -16 1 -6 11 10 17 10 29
0 14 -11 14 -10 2 6 -11 14 -11 20 0 35 12 15 12 16 -2 5 -12 -10 -18 -10 -29
0 -12 10 -12 9 -1 -5z"/>
<path d="M1027 2333 c-14 -14 -6 -23 21 -22 27 2 27 2 2 7 -23 4 -24 5 -5 13
14 5 16 8 4 8 -9 1 -19 -2 -22 -6z"/>
<path d="M1081 2306 c1 -21 3 -25 6 -11 3 11 9 25 14 31 5 7 3 11 -6 11 -10 0
-15 -10 -14 -31z"/>
<path d="M1182 2310 c0 -19 2 -27 5 -17 2 9 2 25 0 35 -3 9 -5 1 -5 -18z"/>
<path d="M1218 2333 c7 -3 16 -2 19 1 4 3 -2 6 -13 5 -11 0 -14 -3 -6 -6z"/>
<path d="M1267 2333 c-14 -14 -6 -23 21 -22 27 2 27 2 2 7 -23 4 -24 5 -5 13
14 5 16 8 4 8 -9 1 -19 -2 -22 -6z"/>
<path d="M1028 2288 c5 -5 16 -8 23 -6 8 3 3 7 -10 11 -17 4 -21 3 -13 -5z"/>
<path d="M1268 2288 c5 -5 16 -8 23 -6 8 3 3 7 -10 11 -17 4 -21 3 -13 -5z"/>
<path d="M1138 2283 c7 -3 16 -2 19 1 4 3 -2 6 -13 5 -11 0 -14 -3 -6 -6z"/>
<path d="M1218 2283 c7 -3 16 -2 19 1 4 3 -2 6 -13 5 -11 0 -14 -3 -6 -6z"/>
<path d="M1546 194 c-4 -9 -4 -19 -1 -22 3 -3 5 0 5 6 0 7 6 12 14 12 8 0 18
5 21 10 3 6 -3 10 -13 10 -11 0 -23 -7 -26 -16z"/>
</g>
</svg>
