<?xml version="1.0" standalone="no"?>
<!DOCTYPE svg PUBLIC "-//W3C//DTD SVG 20010904//EN"
 "http://www.w3.org/TR/2001/REC-SVG-20010904/DTD/svg10.dtd">
<svg version="1.0" xmlns="http://www.w3.org/2000/svg"
 width="493.000000pt" height="486.000000pt" viewBox="0 0 493.000000 486.000000"
 preserveAspectRatio="xMidYMid meet">
<metadata>
Created by potrace 1.16, written by Peter Selinger 2001-2019
</metadata>
<g transform="translate(0.000000,486.000000) scale(0.100000,-0.100000)"
fill="#000000" stroke="none">
<path d="M2840 4778 c0 -9 -20 -13 -74 -15 -41 0 -78 -3 -83 -5 -4 -3 -47 -4
-95 -3 -83 2 -86 1 -97 -23 -15 -32 -6 -40 18 -18 16 14 29 17 63 11 24 -3 76
-9 116 -11 53 -4 72 -9 72 -20 0 -8 9 -14 23 -13 12 0 16 3 10 6 -18 7 -16 23
2 23 8 0 25 5 38 12 12 6 29 14 37 18 24 11 18 45 -7 48 -14 2 -23 -2 -23 -10z"/>
<path d="M2575 4050 c-41 -8 -138 -53 -165 -76 -46 -39 -115 -112 -152 -162
-24 -31 -45 -59 -48 -62 -4 -3 -14 -23 -24 -45 -11 -22 -22 -42 -26 -45 -4 -3
-11 -16 -15 -28 -6 -22 -5 -23 14 -13 26 14 44 48 35 63 -5 8 -2 9 9 5 10 -3
17 -2 17 4 0 17 53 30 93 23 38 -6 39 -7 32 -40 -4 -23 -2 -34 6 -34 7 0 9
-15 6 -45 -4 -28 -2 -43 3 -40 14 9 12 -12 -5 -69 -17 -56 -26 -146 -15 -146
10 0 19 -46 11 -58 -10 -16 -53 -25 -61 -13 -11 19 -40 1 -40 -26 0 -16 7 -27
19 -30 16 -4 18 -13 16 -79 -2 -42 -6 -78 -9 -81 -3 -4 -6 -17 -6 -30 0 -27
26 -41 43 -24 6 6 16 11 22 11 13 0 65 -97 65 -122 0 -17 15 -19 38 -5 15 10
15 10 -2 -44 -8 -24 -17 -68 -20 -96 -5 -51 -4 -53 19 -53 13 0 35 5 49 11 19
9 29 9 39 0 8 -6 22 -9 31 -5 12 5 16 0 16 -21 0 -25 3 -27 30 -23 16 2 32 0
35 -6 3 -8 7 -7 11 1 3 7 11 10 19 7 7 -3 15 2 18 13 2 10 4 -1 3 -24 0 -24
-4 -43 -8 -43 -4 0 -8 5 -8 10 0 6 -5 10 -11 10 -8 0 -7 -5 2 -16 10 -12 23
-14 56 -9 35 5 44 3 50 -11 16 -44 79 -80 117 -68 11 4 29 15 39 25 18 19 77
27 77 9 0 -5 -8 -14 -17 -20 -16 -10 -15 -10 3 -5 18 5 23 0 28 -30 4 -19 11
-35 15 -35 18 0 18 27 0 65 -14 29 -16 41 -7 52 16 20 41 -6 64 -65 17 -46 17
-47 27 -19 5 15 13 27 18 27 5 0 9 5 9 11 0 5 -4 8 -10 4 -5 -3 -8 18 -7 53 1
47 5 59 17 57 8 -1 14 -10 13 -19 0 -12 4 -15 14 -12 8 3 20 3 26 -1 19 -12
50 -11 82 2 36 14 136 126 154 173 11 25 19 32 40 32 35 0 81 -21 81 -37 0 -7
18 -22 39 -33 22 -11 43 -25 47 -31 14 -23 15 -125 2 -137 -7 -6 -51 -13 -98
-15 -132 -8 -191 -21 -212 -47 -10 -12 -18 -28 -18 -35 0 -7 -18 -53 -41 -102
-86 -187 -92 -249 -12 -125 49 74 93 122 114 122 14 0 1 -170 -15 -195 -8 -12
-15 -31 -14 -41 0 -11 -11 -56 -26 -102 -15 -45 -25 -86 -22 -91 8 -12 -22
-173 -33 -180 -4 -3 -12 -17 -16 -31 -4 -14 -17 -33 -29 -44 -12 -10 -20 -22
-19 -27 2 -5 -11 -16 -27 -24 -17 -9 -30 -22 -30 -30 0 -8 -4 -15 -10 -15 -5
0 -10 -6 -10 -14 0 -8 -10 -18 -22 -22 -12 -3 -32 -19 -46 -35 -13 -16 -28
-29 -34 -29 -5 0 -16 -7 -25 -15 -8 -9 -28 -19 -44 -22 -23 -4 -29 -11 -29
-32 0 -18 -11 -36 -35 -55 -24 -20 -33 -35 -30 -47 5 -13 -1 -18 -22 -21 -22
-2 -29 -9 -31 -30 -4 -33 -17 -37 -25 -8 -3 11 -1 20 4 20 5 0 9 5 9 10 0 17
-17 11 -49 -16 -32 -26 -57 -24 -47 5 6 15 5 15 -7 0 -9 -12 -42 -19 -122 -27
-142 -14 -344 -40 -373 -47 -26 -6 -144 22 -153 37 -4 5 -58 13 -120 17 -86 5
-121 12 -142 26 -16 10 -43 25 -60 34 -30 15 -39 32 -52 93 -3 15 -12 33 -20
42 -8 8 -15 19 -15 25 0 6 -5 11 -12 11 -6 0 -9 2 -6 5 3 3 38 -2 79 -11 193
-40 267 -52 304 -48 22 2 150 6 285 9 412 9 520 33 520 116 0 15 7 29 16 33
22 8 24 8 24 -8 0 -19 23 -36 36 -28 18 12 46 73 40 88 -6 16 -52 19 -61 4 -4
-6 -18 -9 -33 -8 -20 2 -27 -2 -32 -22 -6 -24 -7 -24 -27 15 -35 69 -47 160
-33 267 7 51 20 117 30 146 l19 53 -24 35 c-13 19 -26 40 -29 47 -3 9 -7 8
-15 -3 -9 -13 -11 -13 -11 2 0 9 6 19 13 21 7 3 7 6 1 6 -6 1 -18 -7 -28 -18
-15 -16 -28 -18 -111 -13 -90 4 -215 -12 -215 -29 0 -4 -23 -15 -50 -24 -89
-30 -173 -85 -128 -85 15 0 121 60 130 74 6 8 8 7 8 -1 0 -7 -9 -17 -20 -23
-15 -8 -20 -21 -20 -49 0 -21 -11 -59 -25 -85 -22 -42 -40 -123 -47 -218 -3
-34 -28 -47 -28 -15 0 23 -17 47 -32 47 -5 0 -6 -11 -2 -25 6 -25 6 -25 -63
-25 -64 0 -70 2 -96 32 -50 56 -61 90 -26 81 21 -6 37 9 70 68 9 16 43 54 75
85 33 31 50 52 39 47 -34 -14 -147 -8 -185 9 -19 9 -60 24 -90 34 -30 9 -64
20 -75 24 -11 4 -64 15 -117 25 -54 9 -98 21 -98 25 0 4 -44 13 -97 20 -89 12
-174 43 -193 70 -9 13 -124 66 -157 73 -29 6 -115 58 -138 83 -5 7 -16 14 -24
16 -11 3 -15 31 -17 122 -5 150 -13 180 -69 239 -25 26 -45 50 -45 53 0 2 -9
13 -21 25 -14 14 -29 19 -52 16 -29 -4 -30 -5 -10 -12 29 -10 29 -24 -2 -54
-14 -13 -25 -27 -25 -32 0 -5 -9 -9 -20 -9 -11 0 -20 7 -20 15 0 8 5 15 10 15
6 0 10 5 10 10 0 7 -7 7 -21 -1 -21 -11 -38 0 -39 24 0 13 -71 7 -86 -7 -18
-18 -18 -36 -1 -36 16 0 60 -40 53 -47 -3 -3 -19 0 -36 7 -40 17 -90 -1 -70
-25 14 -17 50 -20 50 -5 0 6 7 10 15 10 11 0 14 -9 12 -35 -1 -19 -5 -35 -8
-35 -3 0 -27 7 -53 16 -26 9 -50 14 -53 10 -4 -3 8 -11 25 -17 18 -6 32 -16
32 -22 0 -7 3 -22 6 -34 5 -19 2 -23 -17 -24 -17 -1 -19 -3 -7 -6 22 -6 23
-21 2 -61 -12 -25 -22 -32 -44 -32 -22 0 -29 -6 -34 -26 -5 -18 -2 -30 8 -38
8 -6 16 -22 18 -35 2 -14 9 -27 17 -29 10 -3 12 0 8 11 -4 11 1 20 13 27 15 8
21 6 30 -9 5 -11 10 -30 10 -42 0 -22 1 -22 14 -4 12 17 13 13 11 -33 -2 -28
-6 -56 -10 -61 -5 -10 32 -31 55 -31 5 0 15 -6 23 -14 24 -25 81 -43 115 -38
35 5 72 -18 72 -45 0 -7 6 -13 13 -13 8 0 24 -9 37 -20 13 -11 31 -20 41 -20
26 0 32 -17 17 -48 -12 -25 -11 -29 14 -55 23 -24 26 -25 21 -7 -3 12 -2 20 3
19 5 -1 22 3 38 10 16 6 29 10 30 9 0 -2 7 -13 13 -25 19 -33 16 -60 -7 -66
-11 -3 -20 -1 -20 4 0 5 7 9 15 9 9 0 12 6 9 15 -6 15 -45 21 -57 8 -8 -7 67
-83 82 -83 6 0 11 -6 11 -12 0 -9 3 -9 9 1 5 8 7 20 4 27 -8 21 19 28 34 8 14
-18 15 -18 40 11 17 20 26 26 30 17 4 -10 9 -10 24 4 17 16 18 14 16 -37 -2
-52 15 -86 21 -43 2 12 14 32 28 45 l24 22 0 -46 c0 -25 -5 -49 -11 -53 -7 -4
-9 -25 -7 -56 6 -54 23 -73 75 -84 54 -10 61 -30 25 -67 -24 -24 -32 -42 -32
-68 0 -27 -6 -38 -27 -51 -16 -9 -41 -31 -58 -50 -16 -18 -21 -25 -9 -15 25
21 34 22 34 3 0 -17 -49 -58 -61 -51 -4 3 -6 12 -2 20 3 10 -1 15 -12 15 -14
0 -16 8 -13 50 4 64 -14 66 -44 6 -11 -24 -32 -49 -45 -55 -15 -7 -23 -19 -23
-35 0 -27 15 -42 25 -26 3 5 12 10 18 10 7 0 4 -7 -7 -15 -12 -9 -17 -22 -13
-35 3 -11 1 -20 -4 -20 -14 0 -39 -57 -33 -74 3 -9 10 -16 15 -16 5 0 15 -13
23 -29 9 -16 27 -32 41 -35 14 -4 25 -11 25 -16 0 -13 180 -100 207 -100 12 0
25 -4 28 -10 3 -5 31 -9 61 -9 43 1 60 -3 78 -20 12 -11 47 -28 77 -37 30 -9
61 -21 69 -28 8 -6 28 -18 45 -26 16 -8 37 -23 47 -33 22 -21 50 -23 42 -2 -9
22 5 19 48 -11 41 -29 48 -44 21 -45 -14 0 -15 -2 -3 -6 8 -3 23 -14 34 -25
11 -10 23 -18 27 -18 4 0 33 -17 65 -39 33 -21 75 -47 94 -57 19 -10 42 -24
50 -30 8 -6 32 -17 53 -25 20 -7 37 -16 37 -21 0 -4 19 -12 43 -18 23 -6 50
-15 60 -20 31 -18 156 -40 224 -40 l66 0 -5 -121 c-3 -70 -10 -125 -17 -132
-6 -6 -11 -19 -11 -28 0 -10 -14 -47 -30 -83 -17 -36 -33 -79 -36 -95 l-6 -31
767 0 767 0 -5 42 c-15 122 -42 228 -58 228 -5 0 -9 6 -9 13 -1 18 -60 84 -60
66 0 -9 -17 -35 -37 -59 -43 -50 -135 -96 -203 -102 -41 -3 -45 -1 -71 37 -16
22 -27 45 -24 52 2 6 -1 14 -8 17 -7 2 -5 5 5 5 14 1 35 51 30 73 -1 3 5 12
13 18 8 7 15 19 15 27 0 7 6 16 14 19 19 7 29 34 17 48 -5 6 -9 27 -9 46 0 19
-5 49 -12 65 -7 17 -14 33 -15 38 -2 4 -4 10 -5 15 -3 9 0 91 4 112 12 57 13
58 96 57 87 -2 100 5 132 74 10 19 27 44 39 55 24 22 99 174 99 202 0 10 -9
54 -20 97 -11 43 -20 91 -20 106 0 36 -20 79 -36 79 -24 0 -64 60 -64 96 0 45
23 45 81 -1 24 -19 51 -35 60 -35 27 0 109 61 134 99 27 43 55 68 117 107 46
28 60 44 38 44 -18 0 -104 43 -133 67 -15 12 -46 28 -67 34 l-39 12 -53 -55
c-89 -93 -112 -128 -152 -235 -9 -24 -23 -62 -32 -85 -49 -133 -153 -308 -251
-425 -34 -40 -51 -53 -72 -53 -15 0 -28 6 -29 13 -3 34 -29 99 -44 108 -6 4
-18 1 -25 -7 -8 -8 -25 -14 -37 -14 -22 0 -23 -4 -22 -55 0 -30 0 -55 -2 -55
-2 0 -12 5 -22 10 -13 7 -21 7 -26 -2 -4 -6 -2 -14 4 -16 17 -5 15 -20 -6 -47
-18 -23 -19 -23 -43 -4 -13 10 -35 21 -49 24 -14 3 -36 15 -50 26 l-25 21 30
-6 c17 -2 35 -2 41 2 5 4 28 42 49 85 22 44 53 88 69 100 l29 20 17 -23 c24
-32 32 -12 19 55 -8 42 -7 65 1 86 7 15 9 33 5 39 -4 6 -2 16 3 23 5 7 13 48
16 92 7 93 28 160 61 195 13 14 29 38 35 54 10 26 13 28 51 23 23 -3 52 -15
65 -28 21 -20 41 -78 36 -104 -1 -5 20 15 48 45 38 41 49 61 45 78 -3 12 -8
33 -11 47 -5 19 -2 25 11 25 11 0 15 5 11 15 -3 9 3 23 14 32 16 14 17 19 6
35 -10 14 -11 30 -5 56 16 71 11 95 -26 122 -19 14 -39 38 -45 54 -13 36 -13
36 3 36 8 0 23 31 37 75 13 42 30 81 37 87 7 6 13 16 13 22 0 6 14 22 31 36
17 14 48 42 69 62 29 28 44 36 64 32 14 -2 26 0 26 6 0 5 -9 10 -20 10 -11 0
-23 7 -26 15 -4 8 -11 15 -16 15 -6 0 -31 20 -56 45 -25 25 -48 45 -52 45 -3
0 -12 -17 -19 -37 -16 -44 -66 -92 -98 -93 -34 0 -36 15 -8 67 14 26 28 65 31
86 4 20 10 37 15 37 5 0 9 9 9 20 0 11 7 23 15 26 8 4 15 17 15 31 0 22 3 25
30 21 27 -4 30 -2 36 31 3 20 8 43 11 51 4 8 6 18 5 21 -1 4 9 5 21 2 32 -8
10 11 -33 27 -19 8 -39 19 -43 24 -5 6 -5 0 -2 -13 6 -21 5 -23 -11 -17 -11 4
-29 9 -41 10 -12 2 -34 11 -49 20 -31 21 -147 66 -186 73 -16 3 -28 9 -28 14
0 4 -14 3 -32 -3 -28 -10 -33 -9 -54 15 -32 37 -50 26 -57 -35 -4 -28 -10 -54
-15 -57 -5 -3 -13 -17 -17 -30 -8 -27 -43 -60 -62 -61 -12 0 -63 43 -63 53 0
3 -13 26 -30 50 -16 25 -30 52 -30 61 0 9 -8 24 -17 34 -25 24 -43 81 -43 131
0 37 -2 42 -15 31 -11 -9 -13 -26 -8 -72 5 -50 3 -63 -14 -86 -11 -15 -24 -38
-28 -51 -5 -17 -9 -20 -15 -11 -4 7 -15 10 -24 7 -9 -4 -16 -2 -16 3 0 6 -6 9
-12 7 -7 -1 -12 6 -12 15 1 10 -4 14 -12 11 -14 -5 -44 19 -44 35 0 5 -7 15
-16 22 -30 26 -63 96 -77 165 -15 71 -13 130 4 119 5 -3 12 2 15 10 3 9 10 16
15 16 4 0 6 -7 3 -15 -5 -11 1 -15 25 -15 28 0 30 -2 29 -35 -1 -27 7 -43 38
-76 21 -23 47 -50 56 -60 35 -37 90 15 75 71 -3 11 1 24 9 31 21 17 17 106 -6
157 -11 24 -32 50 -50 60 -16 9 -30 20 -30 25 0 11 -38 9 -62 -4 -16 -8 -31
-8 -62 1 -47 14 -126 49 -126 56 0 3 5 2 10 -1 13 -8 13 1 0 25 -7 14 -6 23 5
34 8 8 15 19 15 25 0 6 4 11 9 11 4 0 6 11 3 25 -3 19 0 25 12 25 10 0 14 5
11 10 -3 6 4 14 17 19 13 5 30 16 37 25 10 12 17 14 27 5 11 -9 14 -8 14 5 0
9 5 16 10 16 6 0 10 -4 10 -9 0 -5 8 -7 19 -4 12 3 17 11 14 22 -3 13 1 17 18
16 26 -2 73 -41 65 -54 -3 -5 3 -11 14 -14 13 -3 20 0 20 9 0 8 -4 14 -10 14
-5 0 -10 9 -10 21 0 11 -4 18 -9 15 -5 -3 -8 5 -8 18 0 23 0 23 18 5 11 -11
19 -21 19 -23 0 -2 23 -26 50 -53 34 -35 48 -56 44 -67 -4 -9 -1 -16 6 -16 9
0 10 -4 2 -13 -16 -19 -3 -57 19 -57 10 0 18 -7 18 -17 3 -77 49 -173 83 -173
15 0 16 3 5 28 -6 15 -17 33 -24 39 -6 7 -17 29 -23 48 -6 19 -15 35 -19 35
-4 0 -13 26 -19 58 -7 31 -24 80 -37 107 -14 28 -25 55 -25 61 0 6 -10 19 -21
30 -12 10 -24 26 -28 35 -11 29 -122 116 -165 130 -23 7 -46 19 -53 25 -27 26
-214 41 -298 24z m53 -998 c9 -6 11 -28 9 -73 -2 -35 0 -74 5 -86 4 -14 4 -23
-2 -23 -5 0 -1 -15 10 -32 11 -18 20 -39 20 -46 0 -20 -33 -10 -45 14 -15 29
-34 47 -86 77 -36 21 -48 24 -58 14 -10 -9 -15 -8 -27 7 -8 11 -14 16 -14 10
-1 -5 -7 2 -14 15 -22 40 0 79 30 52 5 -4 26 -6 47 -4 29 4 46 15 70 44 35 42
36 43 55 31z m1067 -632 c3 -5 17 -10 30 -10 13 0 27 5 30 10 9 15 25 12 25
-5 0 -8 -4 -15 -10 -15 -15 0 -33 -41 -23 -51 23 -23 -29 -219 -58 -219 -5 0
-9 -5 -9 -12 0 -14 -40 -58 -52 -58 -18 0 -6 65 28 148 71 173 75 190 34 164
-30 -18 -48 -14 -52 11 -5 33 41 63 57 37z m-1215 -290 c5 0 12 5 15 10 8 13
65 9 65 -4 0 -5 9 -1 20 9 16 14 20 15 20 4 0 -8 -5 -20 -11 -26 -7 -7 -15
-29 -19 -50 l-8 -38 -1 37 c0 20 -5 40 -11 43 -16 10 -50 -14 -50 -36 0 -12
-10 -29 -22 -39 -18 -14 -22 -26 -20 -57 4 -51 -16 -71 -45 -44 -20 19 -21 19
-32 -5 -6 -14 -11 -33 -11 -44 0 -21 -16 -35 -24 -21 -4 6 -18 6 -35 1 -26 -7
-30 -5 -35 16 -4 15 2 42 14 69 11 24 20 59 20 78 0 51 51 101 104 102 32 1
42 5 45 21 5 17 5 17 9 -3 2 -13 7 -23 12 -23z m-905 -885 c-8 -62 -1 -68 46
-34 17 12 37 18 48 14 11 -3 22 -1 26 5 10 16 45 12 45 -5 0 -8 4 -15 9 -15 6
0 6 -12 -1 -30 -7 -22 -7 -34 2 -44 9 -12 17 -12 53 4 23 10 50 30 60 44 25
35 62 34 80 -1 8 -16 12 -35 9 -43 -4 -12 -3 -13 10 -2 13 10 18 8 32 -13 17
-25 77 -58 130 -70 19 -4 34 -1 46 10 17 15 19 14 25 -16 4 -17 10 -27 14 -22
8 13 66 43 82 43 7 0 21 -7 31 -17 17 -15 19 -15 37 5 11 13 16 31 14 46 -3
13 0 27 6 30 7 5 11 -2 11 -18 0 -14 4 -26 9 -26 18 0 51 53 51 82 0 17 4 27
10 23 6 -3 10 -30 10 -58 0 -35 -3 -47 -9 -37 -8 11 -18 5 -51 -30 -23 -25
-46 -55 -50 -67 -9 -21 -30 -32 -30 -15 0 4 -17 7 -37 7 -25 0 -37 4 -35 13 3
19 -15 14 -35 -10 -10 -13 -29 -29 -41 -36 -19 -10 -22 -10 -22 4 0 13 -5 12
-29 -6 -17 -12 -32 -16 -36 -11 -3 6 -14 2 -25 -9 -24 -24 -55 -27 -47 -5 4 8
2 17 -4 21 -6 3 -13 -3 -16 -15 -6 -24 -23 -28 -23 -6 0 18 -5 19 -29 3 -14
-9 -23 -8 -42 5 -31 22 -46 21 -54 -2 -5 -17 -10 -18 -35 -9 -17 5 -30 14 -30
20 0 6 7 8 15 5 22 -9 30 13 12 31 -13 13 -21 13 -42 4 -29 -13 -80 -15 -110
-3 -11 4 -33 5 -50 1 -58 -13 -100 25 -60 54 12 8 -3 11 -62 13 -43 0 -87 2
-98 3 l-20 2 20 8 c11 5 37 12 59 15 43 7 91 48 82 71 -3 8 -1 38 5 67 14 70
17 77 29 77 8 0 9 -17 5 -55z m1525 -707 c0 -26 -49 -116 -70 -131 -17 -12
-23 -27 -25 -61 -1 -33 -11 -60 -38 -99 -19 -30 -39 -71 -42 -91 -7 -36 -8
-36 -57 -36 -96 0 -199 43 -171 71 10 10 16 9 28 -1 14 -11 19 -10 38 9 l22
22 -22 5 c-20 6 -23 13 -25 58 0 28 0 62 1 74 2 24 -14 52 -30 52 -5 0 -6 -7
-3 -15 4 -8 2 -15 -4 -15 -16 0 -34 65 -26 94 5 20 12 26 34 26 15 0 33 -7 40
-15 7 -8 18 -15 26 -15 7 0 16 -9 19 -20 12 -38 105 -16 105 25 0 6 39 26 88
43 98 35 112 37 112 20z"/>
</g>
</svg>
