<svg xmlns="http://www.w3.org/2000/svg" width="227" height="197" viewBox="0 0 227 197">
  <g id="Polygon_3" data-name="Polygon 3" transform="translate(227 197) rotate(180)" fill="#fbfbfb">
    <path d="M 209.6976165771484 196.5000152587891 L 17.30238914489746 196.5000152587891 C 13.86975002288818 196.5000152587891 10.79497241973877 194.7257080078125 9.077305793762207 191.7537231445312 C 7.359638690948486 188.7817535400391 7.357222080230713 185.2317504882812 9.070860862731934 182.2574768066406 L 105.2684707641602 15.28892421722412 C 106.9847793579102 12.30995273590088 110.0619735717773 10.53145217895508 113.5 10.53145217895508 C 116.9380264282227 10.53145217895508 120.0152206420898 12.30995273590088 121.7315292358398 15.28892421722412 L 217.9291381835938 182.2574768066406 C 219.6427764892578 185.2317504882812 219.6403656005859 188.7817535400391 217.9226989746094 191.7537231445312 C 216.2050323486328 194.7257080078125 213.1302490234375 196.5000152587891 209.6976165771484 196.5000152587891 Z" stroke="none"/>
    <path d="M 113.5 11.03144836425781 C 110.242919921875 11.03144836425781 107.3276672363281 12.71633911132812 105.7016906738281 15.53852844238281 L 9.50408935546875 182.5070648193359 C 7.880661010742188 185.3248138427734 7.882949829101562 188.68798828125 9.510223388671875 191.5035400390625 C 11.13746643066406 194.319091796875 14.05044555664062 196 17.30238342285156 196 L 209.6976165771484 196 C 212.9495544433594 196 215.8625335693359 194.319091796875 217.4897766113281 191.5035400390625 C 219.1170501708984 188.68798828125 219.1193389892578 185.3248138427734 217.4959106445312 182.5070648193359 L 121.2983093261719 15.53852844238281 C 119.6723022460938 12.71633911132812 116.7570571899414 11.03144836425781 113.5 11.03144836425781 M 113.5 10.03146362304688 C 116.8706436157227 10.03146362304688 120.2412948608398 11.70074462890625 122.1647796630859 15.039306640625 L 218.3623962402344 182.0078430175781 C 222.2033386230469 188.6744995117188 217.3915863037109 197 209.6976165771484 197 L 17.30238342285156 197 C 9.608413696289062 197 4.796661376953125 188.6744995117188 8.637603759765625 182.0078430175781 L 104.8352203369141 15.039306640625 C 106.7587051391602 11.70074462890625 110.1293563842773 10.03146362304688 113.5 10.03146362304688 Z" stroke="none" fill="#ff7e2a"/>
  </g>
</svg>
