<svg xmlns="http://www.w3.org/2000/svg" width="207" height="86" viewBox="0 0 207 86">
  <g id="pickimgg" transform="translate(-103 -707.455)">
    <text id="_" data-name="+" transform="translate(189 760.455)" fill="#e4b554" font-size="49" font-family="SegoeUI, Segoe UI"><tspan x="0" y="0">+</tspan></text>
    <text id="upload_a_picture" data-name="upload a picture" transform="translate(145 778.455)" fill="#fff" font-size="14" font-family="SegoeUI, Segoe UI" opacity="0.6"><tspan x="0" y="0">Upload A Picture</tspan></text>
    <g id="Path_106" data-name="Path 106" transform="translate(103 716)" fill="#fdfdfd" opacity="0.05">
      <path d="M 202 77.30509185791016 L 5 77.30509185791016 C 2.325710535049438 77.30509185791016 0.1500000059604645 75.20075225830078 0.1500000059604645 72.61414337158203 L 0.1500000059604645 4.840933799743652 C 0.1500000059604645 2.254354953765869 2.325710535049438 0.1500127464532852 5 0.1500127464532852 L 202 0.1500127464532852 C 204.6742858886719 0.1500127464532852 206.8500061035156 2.254354953765869 206.8500061035156 4.840933799743652 L 206.8500061035156 72.61414337158203 C 206.8500061035156 75.20075225830078 204.6742858886719 77.30509185791016 202 77.30509185791016 Z" stroke="none"/>
      <path d="M 5 0.29998779296875 C 2.408416748046875 0.29998779296875 0.3000030517578125 2.3370361328125 0.3000030517578125 4.840934753417969 L 0.3000030517578125 72.61414337158203 C 0.3000030517578125 75.11801147460938 2.408416748046875 77.15506744384766 5 77.15506744384766 L 202 77.15506744384766 C 204.5915832519531 77.15506744384766 206.6999969482422 75.11801147460938 206.6999969482422 72.61414337158203 L 206.6999969482422 4.840934753417969 C 206.6999969482422 2.3370361328125 204.5915832519531 0.29998779296875 202 0.29998779296875 L 5 0.29998779296875 M 5 -1.52587890625e-05 L 202 -1.52587890625e-05 C 204.7614135742188 -1.52587890625e-05 207 2.1673583984375 207 4.840934753417969 L 207 72.61414337158203 C 207 75.2877197265625 204.7614135742188 77.45506286621094 202 77.45506286621094 L 5 77.45506286621094 C 2.23858642578125 77.45506286621094 0 75.2877197265625 0 72.61414337158203 L 0 4.840934753417969 C 0 2.1673583984375 2.23858642578125 -1.52587890625e-05 5 -1.52587890625e-05 Z" stroke="none" fill="#707070"/>
    </g>
  </g>
</svg>
