<svg xmlns="http://www.w3.org/2000/svg" width="207" height="89" viewBox="0 0 207 89">
  <g id="pickimg" transform="translate(-111 -708)">
    <g id="Path_106" data-name="Path 106" transform="translate(111 717)" fill="#fdfdfd" opacity="0.5">
      <path d="M 202 79.84999847412109 L 5 79.84999847412109 C 2.325710535049438 79.84999847412109 0.1500000059604645 77.67428588867188 0.1500000059604645 75 L 0.1500000059604645 5 C 0.1500000059604645 2.325710535049438 2.325710535049438 0.1500000059604645 5 0.1500000059604645 L 202 0.1500000059604645 C 204.6742858886719 0.1500000059604645 206.8500061035156 2.325710535049438 206.8500061035156 5 L 206.8500061035156 75 C 206.8500061035156 77.67428588867188 204.6742858886719 79.84999847412109 202 79.84999847412109 Z" stroke="none"/>
      <path d="M 5 0.3000030517578125 C 2.408416748046875 0.3000030517578125 0.3000030517578125 2.408424377441406 0.3000030517578125 5 L 0.3000030517578125 75 C 0.3000030517578125 77.59157562255859 2.408416748046875 79.69999694824219 5 79.69999694824219 L 202 79.69999694824219 C 204.5915832519531 79.69999694824219 206.6999969482422 77.59157562255859 206.6999969482422 75 L 206.6999969482422 5 C 206.6999969482422 2.408424377441406 204.5915832519531 0.3000030517578125 202 0.3000030517578125 L 5 0.3000030517578125 M 5 0 L 202 0 C 204.7614135742188 0 207 2.238578796386719 207 5 L 207 75 C 207 77.76142120361328 204.7614135742188 80 202 80 L 5 80 C 2.23858642578125 80 0 77.76142120361328 0 75 L 0 5 C 0 2.238578796386719 2.23858642578125 0 5 0 Z" stroke="none" fill="#707070"/>
    </g>
    <text id="_" data-name="+" transform="translate(197 761)" fill="#e4b554" font-size="49" font-family="SegoeUI, Segoe UI"><tspan x="0" y="0">+</tspan></text>
    <text id="upload_a_picture" data-name="upload a picture" transform="translate(153 782)" fill="#191919" font-size="14" font-family="SegoeUI, Segoe UI" opacity="0.5"><tspan x="0" y="0">Upload A Picture</tspan></text>
  </g>
</svg>
